<?xml version="1.0" encoding="utf-8"?>
<!-- Generator: Adobe Illustrator 20.1.0, SVG Export Plug-In . SVG Version: 6.00 Build 0)  -->
<svg version="1.1" id="Layer_1" xmlns="http://www.w3.org/2000/svg" xmlns:xlink="http://www.w3.org/1999/xlink" x="0px" y="0px"
	 viewBox="0 0 774.4 556.7" style="enable-background:new 0 0 774.4 556.7;" xml:space="preserve">
<style type="text/css">
	.st0{fill:#FFFFFF;}
</style>
<g>
	<g>
		<path class="st0" d="M633.9,455.4L414.7,236.2c-5.1-5.1-11.8-7.8-19.2-7.8c-7.2,0-14,2.8-19,7.8L157.6,455.2
			c-5.1,5.1-7.9,11.8-7.9,19s2.8,14,7.9,19l16.1,16.1c5.1,5.1,11.8,7.9,19,7.9c7.2,0,14-2.8,19-7.9l183.9-183.9l184.1,184.1
			c5.1,5.1,11.8,7.9,19,7.9c7.2,0,14-2.8,19-7.9l16.1-16.1C644.4,483,644.4,465.9,633.9,455.4z"/>
	</g>
</g>
</svg>
